<svg id="Layer_1" data-name="Layer 1" xmlns="http://www.w3.org/2000/svg" viewBox="0 0 350 280"><defs><style>.cls-1{fill:#00d4a3;}</style></defs><title>Logo_Kudodeal_Final</title><path class="cls-1" d="M28.4,144.71c0-3.46,2.06-5.22,4.92-5.22s4.92,1.76,4.92,5.22v12L51.78,142c1.95-2.19,3.16-2.49,4.62-2.49,2.19,0,4.92,2.12,4.92,4.74a6.14,6.14,0,0,1-1.94,3.94L47.65,160l12.82,13.91c1.52,1.64,2.73,2.91,2.73,4.73,0,3.16-2.43,4.86-5.16,4.86s-4.49-2.36-6.07-4.13L38.24,163.91v14.33c0,3.46-2.07,5.22-4.92,5.22s-4.92-1.76-4.92-5.22Z"/><path class="cls-1" d="M192.16,145.08a4.75,4.75,0,0,1,4.92-4.92h11.78c12.88,0,20.17,10.2,20.17,21.32,0,14.15-9.48,21.92-20.17,21.92H197.08a4.75,4.75,0,0,1-4.92-4.92ZM202,174.29h5.22c7.66,0,11.24-5.28,11.24-12.81,0-7.29-3.65-12.21-10.81-12.21H202Z"/><path class="cls-1" d="M232.67,145.08a4.75,4.75,0,0,1,4.92-4.92h15.06c3.1,0,4.92,1.82,4.92,4.55s-1.82,4.56-4.92,4.56H242.51v7.83h9.29c3.1,0,4.92,1.77,4.92,4.56s-1.82,4.55-4.92,4.55h-9.29v8.08H253c3.09,0,4.92,1.7,4.92,4.56s-1.83,4.55-4.92,4.55H237.59a4.75,4.75,0,0,1-4.92-4.92Z"/><path class="cls-1" d="M271,148.11c1.76-4.79,3.28-8.92,8.2-8.92s6.56,4.13,8.32,8.92L297,173.69c1.27,3.46,1.46,4.61,1.46,6.07,0,2.43-2,4-4.74,4-3.22,0-4.25-2.07-5.16-4.8l-1.22-3.89H271.19L270,179c-.91,2.73-1.94,4.8-5.16,4.8-2.8,0-4.74-1.58-4.74-4,0-1.46.18-2.61,1.46-6.07Zm8.51,2h-.13L274.11,166h10.33Z"/><path class="cls-1" d="M300.67,145c0-3.47,2.07-5.23,4.92-5.23s4.92,1.76,4.92,5.23v29.27h10.57c3.1,0,4.92,1.7,4.92,4.56s-1.82,4.55-4.92,4.55H305.59a4.75,4.75,0,0,1-4.92-4.92Z"/><path class="cls-1" d="M167.26,139.19c-7.86,0-14.07,3.35-17.7,9.1-1-2.31-1.93-4.64-2.7-7a58.11,58.11,0,0,1-1.59-5.7,48.78,48.78,0,0,1-.85-5.88l-.25-2.32c0-.46-.1-.91-.21-1.52l-.08-.37a20.38,20.38,0,0,0-1.13-3.73,11.12,11.12,0,0,0-1.09-2.11,10.35,10.35,0,0,0-1.71-2.22,6.57,6.57,0,0,0-1.36-1.2c-.35-.25-.72-.5-1.08-.74l-.22-.13c-.36-.18-.74-.34-1.3-.57a6.36,6.36,0,0,0-1.58-.49,14.67,14.67,0,0,0-9.84,1.52,21.1,21.1,0,0,0-6.73,5.32,19.16,19.16,0,0,0-4.07,7.82,19.56,19.56,0,0,0-.16,8.68,22.34,22.34,0,0,0,2.81,7.08l-.76.06a23.78,23.78,0,0,0-4,.67,22.11,22.11,0,0,0-7.55,3.53,16.92,16.92,0,0,0-2,1.73V145c0-3.47-2.07-5.23-4.92-5.23s-4.92,1.76-4.92,5.23v21c0,5.77-4.07,8.87-8.93,8.87s-8.87-3.1-8.87-8.87V145c0-3.47-2.07-5.23-4.92-5.23s-4.92,1.76-4.92,5.23v21c0,11.42,7.77,18.35,18.71,18.35,6.58,0,12-2.53,15.33-7a43.51,43.51,0,0,0,4.34,8.43,36.89,36.89,0,0,0,10.72,10.7,25.07,25.07,0,0,0,13.39,4,19.9,19.9,0,0,0,2.45-.14,29.06,29.06,0,0,0,14.51-6.28c.89-.7,1.91-1.52,2.77-2.35s1.63-1.55,2.42-2.37l.3-.32a32.58,32.58,0,0,0,4.6-6.38c.3-.58.58-1.17.83-1.76a21.75,21.75,0,0,0,12.21,3.44c12.82,0,21.26-8.87,21.26-22.6S180.08,139.19,167.26,139.19Zm-35.08-14.51h0Zm12.65,53.07a21.81,21.81,0,0,1-3,4.19l-.36.38c-.52.55-1,1.11-1.72,1.71s-1.41,1.25-2.12,1.82a18.69,18.69,0,0,1-9.19,4.2,14,14,0,0,1-9.16-2.28,25.83,25.83,0,0,1-7.61-7.72,30.3,30.3,0,0,1-4.39-10.19,22.94,22.94,0,0,1-.46-5.2,13.18,13.18,0,0,1,1-4.52,9.2,9.2,0,0,1,2.51-3.32,15.32,15.32,0,0,1,4.19-2.29,63,63,0,0,1,11.8-2.57h0a3,3,0,0,0,.63-5.67l-.8-.29-.1-.31a50.18,50.18,0,0,1-2.61-9.66,11.43,11.43,0,0,1,.19-4.49,9.24,9.24,0,0,1,2.05-3.68,10.78,10.78,0,0,1,3.54-2.68,4.6,4.6,0,0,1,2.75-.59l.15.06.1.08a.37.37,0,0,0,.14.1l-.09-.06.1.06h0l.14.09-.14-.08.28.52.11.17.14.4a9.26,9.26,0,0,1,.42,1.53l.08.34c0,.24.06.47.08.71l.08.84c.05.38.09.78.13,1.24a56.57,56.57,0,0,0,1.05,7.25,71.31,71.31,0,0,0,1.88,6.88c1.48,4.44,3.34,8.61,5.12,12.63l.2.44a57.28,57.28,0,0,1,3.95,10.8A13.13,13.13,0,0,1,144.83,177.75Zm22.43-2.49c-7.59,0-10.69-6.62-10.69-13.48s3.1-13.48,10.69-13.48S178,154.92,178,161.78,174.85,175.26,167.26,175.26Z"/><path class="cls-1" d="M152.73,100.93a3.62,3.62,0,0,1-3.07-1.68c-8.22-12.87-23-5-23.64-4.63a3.64,3.64,0,0,1-3.49-6.38c7.37-4,23.8-7.74,33.26,7.1a3.63,3.63,0,0,1-1.11,5A3.57,3.57,0,0,1,152.73,100.93Z"/><path class="cls-1" d="M154,114.59c-4.15-12.11-11.58-15.25-17.09-15.75-7.63-.69-15.6,3.46-18.86,6a3.64,3.64,0,1,0,4,6h0c.08-.07,8.85-6.5,16.19-4.34,3.86,1.14,6.82,4.66,8.82,10.48a3.64,3.64,0,0,0,3.44,2.46,3.73,3.73,0,0,0,1.18-.19A3.65,3.65,0,0,0,154,114.59Z"/></svg>